<mxfile host="app.diagrams.net" modified="2022-09-14T15:06:46.068Z" agent="5.0 (Windows NT 10.0; Win64; x64) AppleWebKit/537.36 (KHTML, like Gecko) Chrome/105.0.0.0 Safari/537.36" etag="0n3toyeyME3PCL0SGXHZ" version="20.3.0" type="github">
  <diagram id="L2K-yEOtQWqV8ZMCQjCw" name="Page-1">
    <mxGraphModel dx="1221" dy="634" grid="1" gridSize="10" guides="1" tooltips="1" connect="1" arrows="1" fold="1" page="1" pageScale="1" pageWidth="850" pageHeight="1100" math="0" shadow="0">
      <root>
        <mxCell id="0" />
        <mxCell id="1" parent="0" />
        <mxCell id="NTSqCfKwjm8ojAk9Ciab-4" style="edgeStyle=orthogonalEdgeStyle;curved=1;rounded=0;orthogonalLoop=1;jettySize=auto;html=1;exitX=0.5;exitY=0;exitDx=0;exitDy=0;exitPerimeter=0;" edge="1" parent="1" source="NTSqCfKwjm8ojAk9Ciab-1" target="NTSqCfKwjm8ojAk9Ciab-3">
          <mxGeometry relative="1" as="geometry" />
        </mxCell>
        <mxCell id="NTSqCfKwjm8ojAk9Ciab-5" style="rounded=0;orthogonalLoop=1;jettySize=auto;html=1;exitX=0.5;exitY=0.5;exitDx=0;exitDy=0;exitPerimeter=0;edgeStyle=orthogonalEdgeStyle;elbow=vertical;curved=1;" edge="1" parent="1" source="NTSqCfKwjm8ojAk9Ciab-1" target="NTSqCfKwjm8ojAk9Ciab-8">
          <mxGeometry relative="1" as="geometry">
            <mxPoint x="290" y="300" as="targetPoint" />
            <Array as="points">
              <mxPoint x="160" y="260" />
              <mxPoint x="160" y="260" />
            </Array>
          </mxGeometry>
        </mxCell>
        <mxCell id="NTSqCfKwjm8ojAk9Ciab-21" style="edgeStyle=none;rounded=0;orthogonalLoop=1;jettySize=auto;html=1;exitX=0.5;exitY=0.5;exitDx=0;exitDy=0;exitPerimeter=0;fontSize=12;elbow=vertical;" edge="1" parent="1" source="NTSqCfKwjm8ojAk9Ciab-1" target="NTSqCfKwjm8ojAk9Ciab-20">
          <mxGeometry relative="1" as="geometry" />
        </mxCell>
        <mxCell id="NTSqCfKwjm8ojAk9Ciab-23" style="edgeStyle=none;rounded=0;orthogonalLoop=1;jettySize=auto;html=1;exitX=0.5;exitY=0.5;exitDx=0;exitDy=0;exitPerimeter=0;fontSize=12;elbow=vertical;" edge="1" parent="1" source="NTSqCfKwjm8ojAk9Ciab-1" target="NTSqCfKwjm8ojAk9Ciab-22">
          <mxGeometry relative="1" as="geometry" />
        </mxCell>
        <mxCell id="NTSqCfKwjm8ojAk9Ciab-25" style="edgeStyle=none;rounded=0;orthogonalLoop=1;jettySize=auto;html=1;exitX=0.5;exitY=0.5;exitDx=0;exitDy=0;exitPerimeter=0;fontSize=12;elbow=vertical;" edge="1" parent="1" source="NTSqCfKwjm8ojAk9Ciab-1" target="NTSqCfKwjm8ojAk9Ciab-24">
          <mxGeometry relative="1" as="geometry" />
        </mxCell>
        <mxCell id="NTSqCfKwjm8ojAk9Ciab-36" style="edgeStyle=none;rounded=0;orthogonalLoop=1;jettySize=auto;html=1;exitX=0.5;exitY=0.5;exitDx=0;exitDy=0;exitPerimeter=0;entryX=0;entryY=0.5;entryDx=0;entryDy=0;fontSize=12;elbow=vertical;" edge="1" parent="1" source="NTSqCfKwjm8ojAk9Ciab-1" target="NTSqCfKwjm8ojAk9Ciab-26">
          <mxGeometry relative="1" as="geometry" />
        </mxCell>
        <mxCell id="NTSqCfKwjm8ojAk9Ciab-1" value="Actor" style="shape=umlActor;verticalLabelPosition=bottom;verticalAlign=top;html=1;outlineConnect=0;" vertex="1" parent="1">
          <mxGeometry x="40" y="230" width="30" height="60" as="geometry" />
        </mxCell>
        <mxCell id="NTSqCfKwjm8ojAk9Ciab-18" style="edgeStyle=none;rounded=0;orthogonalLoop=1;jettySize=auto;html=1;exitX=0.5;exitY=0.5;exitDx=0;exitDy=0;exitPerimeter=0;fontSize=12;elbow=vertical;" edge="1" parent="1" source="NTSqCfKwjm8ojAk9Ciab-2" target="NTSqCfKwjm8ojAk9Ciab-14">
          <mxGeometry relative="1" as="geometry" />
        </mxCell>
        <mxCell id="NTSqCfKwjm8ojAk9Ciab-2" value="Bot" style="shape=umlActor;verticalLabelPosition=bottom;verticalAlign=top;html=1;outlineConnect=0;" vertex="1" parent="1">
          <mxGeometry x="690" y="280" width="30" height="60" as="geometry" />
        </mxCell>
        <mxCell id="NTSqCfKwjm8ojAk9Ciab-3" value="Нэвтрэх" style="ellipse;whiteSpace=wrap;html=1;" vertex="1" parent="1">
          <mxGeometry x="90" y="70" width="90" height="70" as="geometry" />
        </mxCell>
        <mxCell id="NTSqCfKwjm8ojAk9Ciab-7" value="Extend" style="rounded=0;orthogonalLoop=1;jettySize=auto;html=1;entryX=1;entryY=0.5;entryDx=0;entryDy=0;shape=flexArrow;" edge="1" parent="1" source="NTSqCfKwjm8ojAk9Ciab-6" target="NTSqCfKwjm8ojAk9Ciab-3">
          <mxGeometry relative="1" as="geometry" />
        </mxCell>
        <mxCell id="NTSqCfKwjm8ojAk9Ciab-6" value="Бүртгүүлэх&amp;nbsp;" style="ellipse;whiteSpace=wrap;html=1;" vertex="1" parent="1">
          <mxGeometry x="300" y="70" width="90" height="70" as="geometry" />
        </mxCell>
        <mxCell id="NTSqCfKwjm8ojAk9Ciab-8" value="Message илгээх" style="ellipse;whiteSpace=wrap;html=1;fontSize=12;" vertex="1" parent="1">
          <mxGeometry x="270" y="225" width="90" height="70" as="geometry" />
        </mxCell>
        <mxCell id="NTSqCfKwjm8ojAk9Ciab-13" value="include" style="edgeStyle=orthogonalEdgeStyle;shape=flexArrow;curved=1;rounded=0;orthogonalLoop=1;jettySize=auto;html=1;fontSize=12;elbow=vertical;" edge="1" parent="1" source="NTSqCfKwjm8ojAk9Ciab-12" target="NTSqCfKwjm8ojAk9Ciab-8">
          <mxGeometry relative="1" as="geometry" />
        </mxCell>
        <mxCell id="NTSqCfKwjm8ojAk9Ciab-12" value="Засварлах" style="ellipse;whiteSpace=wrap;html=1;fontSize=12;" vertex="1" parent="1">
          <mxGeometry x="160" y="440" width="90" height="70" as="geometry" />
        </mxCell>
        <mxCell id="NTSqCfKwjm8ojAk9Ciab-14" value="Message илгээх" style="ellipse;whiteSpace=wrap;html=1;fontSize=12;" vertex="1" parent="1">
          <mxGeometry x="540" y="220" width="90" height="70" as="geometry" />
        </mxCell>
        <mxCell id="NTSqCfKwjm8ojAk9Ciab-20" value="Гарах" style="ellipse;whiteSpace=wrap;html=1;fontSize=12;" vertex="1" parent="1">
          <mxGeometry x="190" y="130" width="90" height="70" as="geometry" />
        </mxCell>
        <mxCell id="NTSqCfKwjm8ojAk9Ciab-22" value="Message унших" style="ellipse;whiteSpace=wrap;html=1;fontSize=12;" vertex="1" parent="1">
          <mxGeometry x="190" y="300" width="90" height="70" as="geometry" />
        </mxCell>
        <mxCell id="NTSqCfKwjm8ojAk9Ciab-24" value="Chatbot control" style="ellipse;whiteSpace=wrap;html=1;fontSize=12;" vertex="1" parent="1">
          <mxGeometry x="110" y="360" width="90" height="70" as="geometry" />
        </mxCell>
        <mxCell id="NTSqCfKwjm8ojAk9Ciab-26" value="enter room chat" style="ellipse;whiteSpace=wrap;html=1;fontSize=12;" vertex="1" parent="1">
          <mxGeometry x="80" y="530" width="120" height="80" as="geometry" />
        </mxCell>
        <mxCell id="NTSqCfKwjm8ojAk9Ciab-27" value="leave room chat" style="ellipse;whiteSpace=wrap;html=1;fontSize=12;" vertex="1" parent="1">
          <mxGeometry x="350" y="500" width="120" height="80" as="geometry" />
        </mxCell>
        <mxCell id="NTSqCfKwjm8ojAk9Ciab-28" value="add user &lt;br&gt;room chat" style="ellipse;whiteSpace=wrap;html=1;fontSize=12;" vertex="1" parent="1">
          <mxGeometry x="350" y="600" width="120" height="80" as="geometry" />
        </mxCell>
        <mxCell id="NTSqCfKwjm8ojAk9Ciab-32" value="Extend" style="shape=flexArrow;endArrow=classic;html=1;rounded=0;fontSize=12;elbow=vertical;exitX=0;exitY=0.5;exitDx=0;exitDy=0;entryX=1;entryY=0;entryDx=0;entryDy=0;edgeStyle=entityRelationEdgeStyle;" edge="1" parent="1" source="NTSqCfKwjm8ojAk9Ciab-27" target="NTSqCfKwjm8ojAk9Ciab-26">
          <mxGeometry width="50" height="50" relative="1" as="geometry">
            <mxPoint x="460" y="390" as="sourcePoint" />
            <mxPoint x="510" y="340" as="targetPoint" />
          </mxGeometry>
        </mxCell>
        <mxCell id="NTSqCfKwjm8ojAk9Ciab-33" value="" style="shape=flexArrow;endArrow=classic;html=1;rounded=0;fontSize=12;elbow=vertical;entryX=1;entryY=1;entryDx=0;entryDy=0;edgeStyle=entityRelationEdgeStyle;" edge="1" parent="1" source="NTSqCfKwjm8ojAk9Ciab-28" target="NTSqCfKwjm8ojAk9Ciab-26">
          <mxGeometry width="50" height="50" relative="1" as="geometry">
            <mxPoint x="570" y="555" as="sourcePoint" />
            <mxPoint x="620" y="505" as="targetPoint" />
          </mxGeometry>
        </mxCell>
        <mxCell id="NTSqCfKwjm8ojAk9Ciab-37" value="Устгах" style="ellipse;whiteSpace=wrap;html=1;fontSize=12;" vertex="1" parent="1">
          <mxGeometry x="390" y="400" width="90" height="75" as="geometry" />
        </mxCell>
        <mxCell id="NTSqCfKwjm8ojAk9Ciab-38" value="include" style="shape=flexArrow;endArrow=classic;html=1;rounded=0;fontSize=12;entryX=1;entryY=0.5;entryDx=0;entryDy=0;edgeStyle=elbowEdgeStyle;" edge="1" parent="1" source="NTSqCfKwjm8ojAk9Ciab-37" target="NTSqCfKwjm8ojAk9Ciab-8">
          <mxGeometry width="50" height="50" relative="1" as="geometry">
            <mxPoint x="280" y="390" as="sourcePoint" />
            <mxPoint x="330" y="340" as="targetPoint" />
            <Array as="points">
              <mxPoint x="435" y="360" />
              <mxPoint x="510" y="370" />
            </Array>
          </mxGeometry>
        </mxCell>
      </root>
    </mxGraphModel>
  </diagram>
</mxfile>
